<svg width="16" height="16" viewBox="0 0 16 16" fill="none" xmlns="http://www.w3.org/2000/svg">
<g id="link-broken-01" clip-path="url(#clip0_8820_2837)">
<path id="Icon" d="M5.99992 2.66634V1.33301M9.99992 13.333V14.6663M2.66659 5.99967H1.33325M13.3333 9.99967H14.6666M3.27606 3.27582L2.33325 2.33301M12.7238 12.7235L13.6666 13.6663M7.99992 11.7709L6.5857 13.1851C5.54431 14.2265 3.85587 14.2265 2.81447 13.1851C1.77307 12.1437 1.77307 10.4553 2.81447 9.41389L4.22868 7.99967M11.7712 7.99967L13.1854 6.58546C14.2268 5.54406 14.2268 3.85562 13.1854 2.81422C12.144 1.77283 10.4555 1.77283 9.41413 2.81423L7.99992 4.22844" stroke="#F04438" stroke-width="2" stroke-linecap="round" stroke-linejoin="round"/>
</g>
<defs>
<clipPath id="clip0_8820_2837">
<rect width="16" height="16" fill="white"/>
</clipPath>
</defs>
</svg>
