<svg width="16" height="16" viewBox="0 0 16 16" fill="none" xmlns="http://www.w3.org/2000/svg">
<path d="M1.33331 5.62209C1.33331 5.38854 1.33331 5.27177 1.34306 5.17341C1.43705 4.22478 2.18749 3.47434 3.13612 3.38035C3.23448 3.37061 3.35755 3.37061 3.6037 3.37061C3.69855 3.37061 3.74597 3.37061 3.78624 3.36817C4.30039 3.33703 4.75061 3.01252 4.94274 2.5346C4.95779 2.49718 4.97185 2.45499 4.99998 2.37061C5.02811 2.28622 5.04217 2.24403 5.05722 2.20661C5.24935 1.72869 5.69957 1.40418 6.21372 1.37304C6.25399 1.37061 6.29846 1.37061 6.38741 1.37061L9.61255 1.37061C9.7015 1.37061 9.74597 1.37061 9.78624 1.37304C10.3004 1.40418 10.7506 1.72869 10.9427 2.20661C10.9578 2.24403 10.9719 2.28622 11 2.37061C11.0281 2.45499 11.0422 2.49718 11.0572 2.5346C11.2493 3.01252 11.6996 3.33703 12.2137 3.36817C12.254 3.37061 12.3014 3.37061 12.3963 3.37061C12.6424 3.37061 12.7655 3.37061 12.8638 3.38035C13.8125 3.47434 14.5629 4.22478 14.6569 5.17341C14.6666 5.27177 14.6666 5.38854 14.6666 5.62209L14.6666 10.8373C14.6666 11.9574 14.6666 12.5174 14.4487 12.9453C14.2569 13.3216 13.951 13.6275 13.5746 13.8193C13.1468 14.0373 12.5868 14.0373 11.4666 14.0373L4.53331 14.0373C3.41321 14.0373 2.85316 14.0373 2.42533 13.8193C2.04901 13.6275 1.74305 13.3216 1.5513 12.9453C1.33331 12.5174 1.33331 11.9574 1.33331 10.8373L1.33331 5.62209Z" stroke="url(#paint0_linear_8211_1504)" stroke-width="2" stroke-linecap="round" stroke-linejoin="round"/>
<path d="M7.99998 11.0373C9.47274 11.0373 10.6666 9.84336 10.6666 8.37061C10.6666 6.89785 9.47274 5.70394 7.99998 5.70394C6.52722 5.70394 5.33331 6.89785 5.33331 8.37061C5.33331 9.84336 6.52722 11.0373 7.99998 11.0373Z" stroke="url(#paint1_linear_8211_1504)" stroke-width="2" stroke-linecap="round" stroke-linejoin="round"/>
<defs>
<linearGradient id="paint0_linear_8211_1504" x1="0.221562" y1="-2.69733" x2="16.8744" y2="12.1156" gradientUnits="userSpaceOnUse">
<stop stop-color="#0C66E1"/>
<stop offset="1" stop-color="#65C6FF"/>
</linearGradient>
<linearGradient id="paint1_linear_8211_1504" x1="0.221562" y1="-2.69733" x2="16.8744" y2="12.1156" gradientUnits="userSpaceOnUse">
<stop stop-color="#0C66E1"/>
<stop offset="1" stop-color="#65C6FF"/>
</linearGradient>
</defs>
</svg>
