<svg width="89" height="88" viewBox="0 0 89 88" fill="none" xmlns="http://www.w3.org/2000/svg">
<rect x="0.67041" width="88" height="88" rx="24" fill="url(#paint0_radial_7280_9722)"/>
<g filter="url(#filter0_d_7280_9722)">
<path d="M67.7212 57.5056C62.9189 57.5056 58.4861 52.6959 56.1958 49.7361C53.9055 52.6959 49.4726 57.5056 44.6704 57.5056C39.8682 57.5056 35.4353 52.6959 33.145 49.7361C31.0025 52.6959 26.5697 57.5056 21.7674 57.5056C20.7331 57.5056 19.9204 56.6916 19.9204 55.6557C19.9204 54.6198 20.7331 53.8058 21.7674 53.8058C25.6092 53.8058 30.3376 47.6643 31.6674 45.5184C32.0368 45.0005 32.6279 44.6305 33.2189 44.6305C33.81 44.6305 34.4749 44.9265 34.7704 45.5184C36.1003 47.6643 40.8286 53.8058 44.6704 53.8058C48.5122 53.8058 53.2406 47.6643 54.5704 45.5184C54.9398 45.0005 55.5309 44.6305 56.1219 44.6305C56.7868 44.6305 57.3779 44.9265 57.6734 45.5184C59.0032 47.6643 63.7316 53.8058 67.5734 53.8058C68.6077 53.8058 69.4204 54.6198 69.4204 55.6557C69.4204 56.6916 68.7555 57.5056 67.7212 57.5056Z" fill="white"/>
<path d="M67.7212 68.0129C62.9189 68.0129 58.4861 63.2032 56.1958 60.2434C53.9055 63.2032 49.4726 68.0129 44.6704 68.0129C39.8682 68.0129 35.4353 63.2032 33.145 60.2434C31.0025 63.2032 26.5697 68.0129 21.7674 68.0129C20.7331 68.0129 19.9204 67.1989 19.9204 66.163C19.9204 65.1271 20.7331 64.3132 21.7674 64.3132C25.6092 64.3132 30.3376 58.1716 31.6674 56.0258C32.0368 55.5078 32.6279 55.1378 33.2189 55.1378C33.81 55.1378 34.4749 55.4338 34.7704 56.0258C36.1003 58.1716 40.8286 64.3132 44.6704 64.3132C48.5122 64.3132 53.2406 58.1716 54.5704 56.0258C54.9398 55.5078 55.5309 55.1378 56.1219 55.1378C56.7868 55.1378 57.3779 55.4338 57.6734 56.0258C59.0032 58.1716 63.7316 64.3132 67.5734 64.3132C68.6077 64.3132 69.4204 65.1271 69.4204 66.163C69.4204 67.1989 68.7555 68.0129 67.7212 68.0129Z" fill="white"/>
<path d="M23.0233 49.0702C22.1367 49.0702 21.3979 48.4783 21.1763 47.5903C20.9546 46.1104 20.8069 44.6305 20.8069 43.2246C20.8069 29.9796 31.5196 19.2504 44.7442 19.2504C57.9688 19.1764 68.6815 29.9796 68.6815 43.2246C68.6815 44.7045 68.5338 46.1104 68.3121 47.5163C68.1643 48.5523 67.2039 49.2182 66.1696 48.9962C65.1352 48.8482 64.4703 47.8863 64.692 46.8504C64.9136 45.6665 64.9875 44.4086 64.9875 43.2246C64.9875 32.0514 55.9002 22.9501 44.7442 22.9501C33.5882 22.9501 24.5009 31.9775 24.5009 43.2246C24.5009 44.4825 24.6487 45.7405 24.8703 46.9244C25.0181 47.9603 24.427 48.9222 23.3927 49.0702C23.2449 49.0702 23.0972 49.0702 23.0233 49.0702Z" fill="white"/>
</g>
<defs>
<filter id="filter0_d_7280_9722" x="7.92041" y="11.25" width="73.5" height="72.7629" filterUnits="userSpaceOnUse" color-interpolation-filters="sRGB">
<feFlood flood-opacity="0" result="BackgroundImageFix"/>
<feColorMatrix in="SourceAlpha" type="matrix" values="0 0 0 0 0 0 0 0 0 0 0 0 0 0 0 0 0 0 127 0" result="hardAlpha"/>
<feOffset dy="4"/>
<feGaussianBlur stdDeviation="6"/>
<feComposite in2="hardAlpha" operator="out"/>
<feColorMatrix type="matrix" values="0 0 0 0 0 0 0 0 0 0.423529 0 0 0 0 1 0 0 0 1 0"/>
<feBlend mode="normal" in2="BackgroundImageFix" result="effect1_dropShadow_7280_9722"/>
<feBlend mode="normal" in="SourceGraphic" in2="effect1_dropShadow_7280_9722" result="shape"/>
</filter>
<radialGradient id="paint0_radial_7280_9722" cx="0" cy="0" r="1" gradientUnits="userSpaceOnUse" gradientTransform="translate(0.670409 10.1852) rotate(44.2296) scale(101.238 101.399)">
<stop stop-color="#0058DD"/>
<stop offset="1" stop-color="#67C8FF"/>
</radialGradient>
</defs>
</svg>
