<svg width="58" height="57" viewBox="0 0 58 57" fill="none" xmlns="http://www.w3.org/2000/svg">
<g id="Group 1312316074" filter="url(#filter0_b_8035_17322)">
<path id="Vector" d="M55.9121 44.6863C50.3094 44.6863 45.1376 39.075 42.4657 35.6219C39.7935 39.075 34.6218 44.6863 29.019 44.6863C23.4163 44.6863 18.2446 39.075 15.5726 35.6219C13.0728 39.075 7.90108 44.6863 2.29852 44.6863C1.09174 44.6863 0.143555 43.7368 0.143555 42.5281C0.143555 41.3194 1.09174 40.3699 2.29852 40.3699C6.78067 40.3699 12.2972 33.2045 13.8486 30.7011C14.2796 30.0967 14.9692 29.665 15.6588 29.665C16.3484 29.665 17.1242 30.0103 17.4689 30.7011C19.0203 33.2045 24.5369 40.3699 29.019 40.3699C33.5014 40.3699 39.0177 33.2045 40.5693 30.7011C41.0003 30.0967 41.6899 29.665 42.3795 29.665C43.1552 29.665 43.8448 30.0103 44.1895 30.7011C45.741 33.2045 51.2576 40.3699 55.7397 40.3699C56.9465 40.3699 57.8947 41.3194 57.8947 42.5281C57.8947 43.7368 57.1189 44.6863 55.9121 44.6863Z" fill="white"/>
<path id="Vector_2" d="M55.9121 56.9454C50.3094 56.9454 45.1376 51.3341 42.4657 47.881C39.7935 51.3341 34.6218 56.9454 29.019 56.9454C23.4163 56.9454 18.2446 51.3341 15.5726 47.881C13.0728 51.3341 7.90108 56.9454 2.29852 56.9454C1.09174 56.9454 0.143555 55.9959 0.143555 54.7872C0.143555 53.5787 1.09174 52.629 2.29852 52.629C6.78067 52.629 12.2972 45.4638 13.8486 42.9602C14.2796 42.3558 14.9692 41.9243 15.6588 41.9243C16.3484 41.9243 17.1242 42.2696 17.4689 42.9602C19.0203 45.4638 24.5369 52.629 29.019 52.629C33.5014 52.629 39.0177 45.4638 40.5693 42.9602C41.0003 42.3558 41.6899 41.9243 42.3795 41.9243C43.1552 41.9243 43.8448 42.2696 44.1895 42.9602C45.741 45.4638 51.2576 52.629 55.7397 52.629C56.9465 52.629 57.8947 53.5787 57.8947 54.7872C57.8947 55.9959 57.1189 56.9454 55.9121 56.9454Z" fill="white"/>
<path id="Vector_3" d="M3.76352 34.8451C2.72931 34.8451 1.86732 34.1544 1.60873 33.1185C1.35013 31.3919 1.17773 29.6654 1.17773 28.025C1.17773 12.5722 13.6762 0.0546405 29.1052 0.0546405C44.5342 -0.0317304 57.0325 12.5722 57.0325 28.025C57.0325 29.7516 56.8601 31.3919 56.6015 33.0321C56.4291 34.2408 55.3085 35.0176 54.1019 34.7587C52.8951 34.5861 52.1193 33.4638 52.3779 32.2551C52.6365 30.8739 52.7227 29.4063 52.7227 28.025C52.7227 14.9894 42.1207 4.37095 29.1052 4.37095C16.0896 4.37095 5.48749 14.903 5.48749 28.025C5.48749 29.4927 5.65989 30.9603 5.91848 32.3415C6.09088 33.5502 5.40129 34.6723 4.19451 34.8451C4.02211 34.8451 3.84972 34.8451 3.76352 34.8451Z" fill="white"/>
</g>
<defs>
<filter id="filter0_b_8035_17322" x="-12.6564" y="-12.7458" width="83.351" height="82.4911" filterUnits="userSpaceOnUse" color-interpolation-filters="sRGB">
<feFlood flood-opacity="0" result="BackgroundImageFix"/>
<feGaussianBlur in="BackgroundImageFix" stdDeviation="6.4"/>
<feComposite in2="SourceAlpha" operator="in" result="effect1_backgroundBlur_8035_17322"/>
<feBlend mode="normal" in="SourceGraphic" in2="effect1_backgroundBlur_8035_17322" result="shape"/>
</filter>
</defs>
</svg>
